<svg version="1.1" id="Layer_1" xmlns="http://www.w3.org/2000/svg" xmlns:xlink="http://www.w3.org/1999/xlink" x="0px" y="0px"
	 width="100%" viewBox="0 0 1024 1024" enable-background="new 0 0 1024 1024" xml:space="preserve">
<path fill="#000000" opacity="1.000000" stroke="none" 
	d="
M503.013245,250.682541 
	C526.403259,249.960648 549.087463,251.765732 571.418335,256.909088 
	C611.304382,266.095886 647.466980,283.145447 679.405884,308.877319 
	C694.510681,321.046692 708.192261,334.647247 719.981018,350.089081 
	C721.470215,352.039764 723.404114,353.089905 725.610168,354.007050 
	C738.708679,359.452637 746.054443,369.480713 746.989441,383.446838 
	C747.841980,396.182251 743.040527,406.789612 732.458069,414.590607 
	C699.921143,438.575806 665.172913,458.955475 629.503784,477.813934 
	C612.262634,486.929413 593.123413,481.587708 582.151917,465.406372 
	C564.740173,439.726837 540.464478,425.353302 509.600311,422.166687 
	C458.953583,416.937500 412.558746,453.913330 404.292877,503.498138 
	C396.361664,551.075562 422.310425,597.699219 467.657806,614.179565 
	C509.011414,629.208435 556.716492,614.366821 581.557861,577.160339 
	C589.856384,564.731079 601.121460,559.000977 615.701599,559.480347 
	C621.059387,559.656555 626.076111,561.749207 630.809143,564.280273 
	C668.606567,584.493164 705.246765,606.560547 739.731812,632.101135 
	C752.132202,641.285217 757.383240,654.949768 753.779724,669.369263 
	C750.422302,682.804321 738.926331,693.056091 724.341431,695.048096 
	C721.032166,695.500122 718.885742,696.889282 716.810608,699.190674 
	C682.103455,737.683594 640.249023,765.133362 590.510620,780.058350 
	C558.159912,789.765808 525.089417,793.087463 491.325317,790.518372 
	C461.295746,788.233398 432.389252,781.490356 405.067841,769.070190 
	C335.855133,737.606323 287.510773,685.943237 258.785461,615.723206 
	C257.871307,613.488586 256.605286,611.243713 257.205414,608.242004 
	C259.183685,609.303406 259.517181,611.131714 260.149292,612.691711 
	C285.680084,675.698303 329.685150,721.111450 391.068390,749.844238 
	C413.546906,760.366211 437.274414,766.882019 461.929413,769.498596 
	C543.905396,778.198425 613.769531,752.427917 672.217041,694.810242 
	C680.405273,686.738220 687.703003,677.832031 694.871094,668.829407 
	C697.241028,665.852783 696.851929,663.972900 693.816223,661.974915 
	C686.730225,657.311401 679.734741,652.510132 672.537903,647.653503 
	C668.099060,651.381531 665.256653,656.140259 661.696472,660.244751 
	C630.810608,695.852844 592.968018,720.730103 547.226746,732.340759 
	C489.165588,747.078735 433.489990,740.654358 381.625732,709.629883 
	C334.490906,681.434448 302.856628,640.658447 285.809509,588.528992 
	C276.899109,561.281372 273.533112,533.153687 275.949371,504.752563 
	C281.990326,433.747040 314.368286,377.482300 373.330627,337.172485 
	C398.837433,319.734680 427.372772,309.474121 457.923584,304.561493 
	C477.816528,301.362701 497.717346,300.838867 517.623230,303.325012 
	C562.133728,308.884155 601.273315,326.737457 635.430603,355.731018 
	C647.817139,366.244995 658.645569,378.198822 668.485779,391.059540 
	C670.640808,393.876068 672.186218,394.611053 675.291504,392.315552 
	C680.374939,388.557800 685.811279,385.276337 691.110352,381.811646 
	C697.681946,377.514923 697.697754,377.514679 693.133240,371.381744 
	C674.924133,346.915527 652.907471,326.545410 627.163940,310.211548 
	C594.459778,289.461212 559.027344,276.441864 520.404907,272.190643 
	C460.131531,265.556274 404.476288,278.409393 354.171783,312.302429 
	C311.609619,340.979004 280.795502,379.609436 260.766571,426.849487 
	C260.066467,428.500793 259.765625,430.406219 257.577271,431.672272 
	C257.255432,428.568512 258.616638,426.140167 259.640564,423.724243 
	C280.369446,374.815186 311.124603,333.645294 354.252289,302.229309 
	C384.660187,280.078949 418.309479,264.890137 455.084930,256.753235 
	C470.709625,253.296143 486.478394,250.933105 503.013245,250.682541 
M356.960968,612.614929 
	C357.364349,613.343811 357.725494,614.100037 358.177155,614.797668 
	C386.146027,657.996033 424.699615,685.655273 475.644562,695.631714 
	C501.406311,700.676575 527.012085,700.180359 552.381226,694.323853 
	C582.793945,687.303101 609.660950,672.955139 633.038025,652.219543 
	C639.213989,646.741394 645.009460,640.875305 650.668213,634.031799 
	C640.485779,628.219177 630.911133,622.868713 621.466919,617.297119 
	C618.349609,615.458069 616.378235,615.792480 613.884460,618.561096 
	C604.722961,628.731934 594.757019,638.085266 583.252502,645.601501 
	C548.531006,668.286011 510.727936,675.455322 470.135956,667.298035 
	C439.655609,661.172791 413.161102,646.966248 392.579376,623.776367 
	C349.686951,575.448364 340.861511,520.259216 364.615234,460.656219 
	C389.904877,397.199158 461.561127,359.865356 528.495605,373.387360 
	C559.165527,379.583252 585.310547,393.743286 607.107666,416.109558 
	C617.265503,426.532623 617.319946,426.532013 630.082886,419.296356 
	C636.677002,415.558044 643.189148,411.675140 650.183105,407.598328 
	C643.556091,398.945160 636.472473,391.872406 628.703735,385.712677 
	C574.787415,342.963104 514.769226,330.883667 449.511230,353.482819 
	C380.520233,377.374756 335.214539,439.574036 331.530609,513.677246 
	C329.783630,548.817444 338.728149,581.642456 356.960968,612.614929 
z"/>
</svg>